# Tiled2Unity generated file. Do not modify by hand.
# Wavefront file for 'PairOTimbs_mesh_0002.obj'

# Vertices (Count = 16)
v -592 -64 0
v -608 -64 0
v -608 -48 0
v -592 -48 0
v -608 -64 0
v -624 -64 0
v -624 -48 0
v -608 -48 0
v -608 -96 0
v -624 -96 0
v -624 -80 0
v -608 -80 0
v -592 -112 0
v -608 -112 0
v -608 -96 0
v -592 -96 0

# Texture cooridinates (Count = 16)
vt 0.8956612 0.5494297
vt 0.9121901 0.5494297
vt 0.9121901 0.5798479
vt 0.8956612 0.5798479
vt 0.9132231 0.5494297
vt 0.9297521 0.5494297
vt 0.9297521 0.5798479
vt 0.9132231 0.5798479
vt 0.2634298 0.7110266
vt 0.2799587 0.7110266
vt 0.2799587 0.7414448
vt 0.2634298 0.7414448
vt 0.2283058 0.8726236
vt 0.2448347 0.8726236
vt 0.2448347 0.9030418
vt 0.2283058 0.9030418

# Normal
vn 0 0 -1

# Mesh description
g PairOTimbs_mesh_0002

# Faces
f 1/1/1 2/2/1 3/3/1 4/4/1
f 5/5/1 6/6/1 7/7/1 8/8/1
f 9/9/1 10/10/1 11/11/1 12/12/1
f 13/13/1 14/14/1 15/15/1 16/16/1

