# Tiled2Unity generated file. Do not modify by hand.
# Wavefront file for 'Overworld_mesh_0004.obj'

# Vertices (Count = 32)
v 0 -16 0
v -16 -16 0
v -16 0 0
v 0 0 0
v -16 -16 0
v -32 -16 0
v -32 0 0
v -16 0 0
v -32 -16 0
v -48 -16 0
v -48 0 0
v -32 0 0
v -48 -16 0
v -64 -16 0
v -64 0 0
v -48 0 0
v 0 -32 0
v -16 -32 0
v -16 -16 0
v 0 -16 0
v -16 -32 0
v -32 -32 0
v -32 -16 0
v -16 -16 0
v -32 -32 0
v -48 -32 0
v -48 -16 0
v -32 -16 0
v -48 -32 0
v -64 -32 0
v -64 -16 0
v -48 -16 0

# Texture cooridinates (Count = 32)
vt 0.4146341 0.8360656
vt 0.4471545 0.8360656
vt 0.4471545 0.8885246
vt 0.4146341 0.8885246
vt 0.449187 0.8360656
vt 0.4817073 0.8360656
vt 0.4817073 0.8885246
vt 0.449187 0.8885246
vt 0.4837398 0.8360656
vt 0.5162601 0.8360656
vt 0.5162601 0.8885246
vt 0.4837398 0.8885246
vt 0.5182927 0.8360656
vt 0.550813 0.8360656
vt 0.550813 0.8885246
vt 0.5182927 0.8885246
vt 0.4146341 0.7245902
vt 0.4471545 0.7245902
vt 0.4471545 0.7770492
vt 0.4146341 0.7770492
vt 0.449187 0.7245902
vt 0.4817073 0.7245902
vt 0.4817073 0.7770492
vt 0.449187 0.7770492
vt 0.4837398 0.7245902
vt 0.5162601 0.7245902
vt 0.5162601 0.7770492
vt 0.4837398 0.7770492
vt 0.5182927 0.7245902
vt 0.550813 0.7245902
vt 0.550813 0.7770492
vt 0.5182927 0.7770492

# Normal
vn 0 0 -1

# Mesh description
g Overworld_mesh_0004

# Faces
f 1/1/1 2/2/1 3/3/1 4/4/1
f 5/5/1 6/6/1 7/7/1 8/8/1
f 9/9/1 10/10/1 11/11/1 12/12/1
f 13/13/1 14/14/1 15/15/1 16/16/1
f 17/17/1 18/18/1 19/19/1 20/20/1
f 21/21/1 22/22/1 23/23/1 24/24/1
f 25/25/1 26/26/1 27/27/1 28/28/1
f 29/29/1 30/30/1 31/31/1 32/32/1

