# Tiled2Unity generated file. Do not modify by hand.
# Wavefront file for 'Overworld_mesh_0005.obj'

# Vertices (Count = 12)
v -16 -32 0
v -32 -32 0
v -32 -16 0
v -16 -16 0
v -32 -688 0
v -48 -688 0
v -48 -672 0
v -32 -672 0
v -48 -688 0
v -64 -688 0
v -64 -672 0
v -48 -672 0

# Texture cooridinates (Count = 12)
vt 0.5795454 0.8726236
vt 0.5960744 0.8726236
vt 0.5960744 0.9030418
vt 0.5795454 0.9030418
vt 0.9307851 0.4201521
vt 0.947314 0.4201521
vt 0.947314 0.4505703
vt 0.9307851 0.4505703
vt 0.9307851 0.4847909
vt 0.947314 0.4847909
vt 0.947314 0.5152091
vt 0.9307851 0.5152091

# Normal
vn 0 0 -1

# Mesh description
g Overworld_mesh_0005

# Faces
f 1/1/1 2/2/1 3/3/1 4/4/1
f 5/5/1 6/6/1 7/7/1 8/8/1
f 9/9/1 10/10/1 11/11/1 12/12/1

